<?xml version="1.0" standalone="no"?>
<!DOCTYPE svg PUBLIC "-//W3C//DTD SVG 20010904//EN"
 "http://www.w3.org/TR/2001/REC-SVG-20010904/DTD/svg10.dtd">
<svg version="1.0" xmlns="http://www.w3.org/2000/svg"
 width="1024.000000pt" height="1024.000000pt" viewBox="0 0 1024.000000 1024.000000"
 preserveAspectRatio="xMidYMid meet">
<metadata>
Created by potrace 1.14, written by Peter Selinger 2001-2017
</metadata>
<g transform="translate(0.000000,1024.000000) scale(0.100000,-0.100000)"
fill="#000000" stroke="none">
<path d="M0 5120 l0 -5120 5120 0 5120 0 0 5120 0 5120 -5120 0 -5120 0 0
-5120z m5558 4441 c3 -8 -1 -12 -9 -9 -7 2 -15 10 -17 17 -3 8 1 12 9 9 7 -2
15 -10 17 -17z m241 -72 c13 -11 21 -23 17 -26 -4 -4 -19 5 -34 20 -31 31 -19
36 17 6z m61 -29 c0 -5 -4 -10 -10 -10 -5 0 -10 5 -10 10 0 6 5 10 10 10 6 0
10 -4 10 -10z m197 -69 c6 -9 16 -16 21 -16 15 0 75 -56 67 -63 -3 -4 -11 0
-16 8 -8 12 -10 10 -6 -7 7 -32 -17 -29 -32 3 -6 15 -15 24 -18 20 -8 -8 -34
14 -28 24 2 4 -9 20 -25 35 -17 16 -30 33 -30 38 0 11 51 -21 67 -42z m198
-95 c18 -9 22 -16 13 -19 -10 -5 -9 -8 4 -17 10 -6 19 -9 20 -8 2 2 18 -8 37
-21 47 -34 92 -113 72 -126 -11 -6 -83 74 -76 85 3 4 -6 11 -20 14 -27 7 -65
39 -65 56 0 5 -10 18 -22 30 -17 16 -18 20 -6 20 9 0 28 -6 43 -14z m-308 -62
c-6 -6 -47 9 -47 17 0 5 11 3 25 -3 14 -6 24 -13 22 -14z m530 -129 c15 -13
24 -27 21 -31 -9 -8 -57 28 -58 44 0 18 8 15 37 -13z m-272 -15 c3 -5 1 -10
-4 -10 -6 0 -11 5 -11 10 0 6 2 10 4 10 3 0 8 -4 11 -10z m50 -10 c3 -5 1 -10
-4 -10 -6 0 -11 5 -11 10 0 6 2 10 4 10 3 0 8 -4 11 -10z m319 -73 c18 -40 37
-85 40 -102 l6 -30 -21 25 c-12 14 -26 24 -31 22 -5 -1 -7 2 -3 8 4 6 -1 23
-11 38 -10 15 -19 36 -20 47 -1 11 -6 33 -10 49 -12 50 13 21 50 -57z m142
-174 c19 -29 40 -53 48 -53 30 0 80 -120 57 -135 -6 -3 -11 2 -11 13 0 30 -20
62 -73 116 -26 27 -47 54 -47 62 0 7 -5 16 -12 20 -8 5 -9 2 -5 -9 3 -10 2
-17 -3 -17 -6 0 -10 8 -10 18 0 10 -5 23 -12 30 -7 7 -9 12 -5 12 4 0 2 10 -4
23 -22 42 40 -22 77 -80z m-46 -127 c-1 -6 -9 -1 -20 12 -11 13 -24 21 -30 17
-11 -7 -14 8 -3 18 8 9 53 -32 53 -47z m117 -128 c-3 -8 -6 -5 -6 6 -1 11 2
17 5 13 3 -3 4 -12 1 -19z m74 -15 c6 -21 23 -59 36 -85 13 -26 23 -53 22 -60
-3 -27 2 -39 26 -60 32 -28 46 -74 36 -118 l-8 -35 -7 52 c-5 35 -18 65 -37
89 -16 20 -29 45 -29 56 0 11 -11 44 -25 74 -14 30 -25 61 -25 69 0 7 -4 17
-10 20 -13 8 -13 35 -1 35 5 0 15 -17 22 -37z m-1662 0 c27 -12 50 -14 105 -8
39 5 89 10 111 11 22 2 70 6 108 9 45 4 67 2 67 -5 0 -6 8 -10 18 -8 12 2 17
-3 16 -18 0 -14 4 -20 12 -17 7 2 22 -9 35 -26 12 -17 26 -28 31 -25 4 3 8 1
8 -5 0 -5 9 -13 20 -16 11 -3 20 -13 20 -20 0 -19 9 -23 74 -33 48 -8 58 -7
66 7 6 10 10 11 10 4 0 -7 4 -13 9 -13 10 0 24 37 22 60 0 10 1 11 5 3 11 -25
26 -13 19 14 -5 23 -4 25 8 14 10 -8 17 -9 22 -1 3 5 1 10 -5 10 -18 0 0 20
28 31 17 7 29 6 36 -1 5 -5 18 -10 29 -10 11 0 23 -12 31 -32 17 -44 15 -93
-4 -93 -9 0 -16 -11 -18 -27 -2 -20 -9 -28 -24 -28 -15 0 -18 4 -14 18 7 16 6
16 -11 -1 -15 -14 -15 -19 -4 -26 30 -19 -37 -95 -83 -94 -22 1 -37 -7 -50
-24 l-19 -26 31 5 c17 2 29 1 26 -4 -9 -15 24 -8 40 8 11 11 16 12 16 3 0 -22
18 4 22 31 4 25 4 24 21 -8 26 -49 15 -90 -30 -109 -20 -8 -41 -12 -47 -10 -6
3 -36 1 -66 -4 -30 -5 -149 -10 -265 -11 -166 -1 -224 2 -278 16 -38 9 -73 14
-78 10 -5 -3 -9 2 -9 10 0 9 -7 16 -15 16 -16 0 -21 15 -7 23 4 2 1 2 -6 0 -8
-2 -16 6 -19 17 -3 11 -10 20 -15 20 -5 0 -6 -4 -3 -10 3 -5 2 -10 -3 -10 -6
0 -13 7 -16 16 -3 9 -13 14 -21 11 -14 -6 -31 26 -27 51 2 6 -4 12 -13 12 -8
0 -15 6 -15 13 0 6 -5 19 -10 27 -9 13 -11 13 -20 0 -7 -12 -9 -11 -8 5 2 29
-41 95 -57 89 -15 -6 -45 43 -45 75 0 11 -4 23 -10 26 -24 15 -6 32 48 48 101
29 153 32 201 10z m1487 -138 c51 -53 110 -170 158 -315 46 -139 63 -226 77
-395 6 -77 18 -178 26 -225 30 -169 51 -276 62 -310 18 -53 4 -165 -41 -340
-59 -230 -69 -329 -67 -655 1 -310 -6 -366 -60 -514 -29 -76 -62 -147 -47 -98
44 140 61 284 51 421 -9 130 -9 125 4 301 23 291 50 455 101 614 10 31 21 72
23 91 3 19 11 53 17 75 10 31 9 51 -1 95 -14 56 -16 67 -18 86 0 6 -26 44 -57
85 -44 59 -104 165 -104 185 0 2 8 4 19 4 15 0 19 10 24 63 3 34 2 83 -2 109
-5 28 -4 49 2 51 5 1 2 20 -7 42 -9 21 -24 73 -32 115 -15 73 -95 280 -119
310 -7 8 -16 26 -20 40 -4 14 -15 34 -25 45 -35 40 -90 130 -90 147 0 14 9 18
42 18 36 0 47 -6 84 -45z m-3776 -99 c0 -3 -4 -8 -10 -11 -5 -3 -10 -1 -10 4
0 6 5 11 10 11 6 0 10 -2 10 -4z m4084 -222 c10 -39 1 -39 -23 -1 -26 42 -26
51 -2 38 10 -6 22 -22 25 -37z m-4146 -6 c-1 -13 -6 -29 -11 -35 -6 -9 -4 -21
5 -35 29 -45 30 -65 3 -33 -22 24 -26 37 -21 65 3 19 6 41 6 48 0 6 4 12 9 12
6 0 9 -10 9 -22z m2532 -18 c13 -8 13 -10 -2 -10 -9 0 -20 5 -23 10 -8 13 5
13 25 0z m1639 -77 c1 -13 7 -22 14 -20 7 1 13 -11 15 -33 l3 -35 -15 27 c-8
16 -18 33 -22 40 -4 7 -9 28 -10 48 -3 27 -1 31 6 15 5 -11 9 -30 9 -42z
m-1409 23 c47 -9 138 -24 203 -33 111 -15 128 -15 264 1 80 9 148 15 151 12 3
-3 -10 -13 -29 -21 -19 -8 -41 -19 -49 -24 -83 -47 -81 -46 -215 -43 -71 1
-149 4 -173 7 -31 3 -41 1 -35 -8 5 -9 4 -9 -8 0 -18 15 -101 34 -93 22 6 -10
-19 -12 -30 -2 -7 8 -20 10 -91 18 -79 9 -155 34 -155 50 0 8 -6 16 -12 16 -7
1 -19 2 -27 3 -8 0 -16 6 -18 13 -6 17 210 10 317 -11z m-2780 -236 c-1 -30
-3 -40 -9 -30 -9 14 -14 59 -12 90 3 35 21 -17 21 -60z m4193 7 c-3 -13 4 -32
16 -46 24 -28 26 -32 9 -28 -25 5 -49 73 -31 90 10 11 11 9 6 -16z m-1347 -33
c145 -34 256 -37 407 -10 101 18 140 17 107 -5 -24 -15 -149 -50 -219 -61 -71
-11 -271 -2 -271 13 0 5 -10 9 -22 8 -22 0 -22 -1 -3 -9 16 -7 14 -8 -12 -7
-25 2 -29 5 -20 16 10 11 6 12 -22 6 -22 -5 -31 -4 -27 3 6 10 -90 49 -108 43
-6 -1 -19 2 -30 7 -12 5 -32 15 -46 21 -47 22 141 4 266 -25z m-2796 -70 c0
-24 -17 -15 -22 11 -4 20 -3 23 8 14 8 -6 14 -18 14 -25z m2339 20 c17 -5 22
-4 17 4 -10 16 23 8 64 -17 19 -11 62 -27 95 -35 33 -8 71 -18 85 -21 19 -5
22 -4 10 4 -13 9 -13 11 3 11 9 0 17 -4 17 -9 0 -5 10 -11 22 -14 12 -4 19 -9
15 -13 -4 -4 2 -13 13 -21 11 -8 20 -19 20 -25 0 -19 54 -62 80 -63 14 0 24
-6 22 -13 -1 -7 9 -12 24 -12 22 0 24 -2 14 -15 -10 -12 -9 -16 6 -21 11 -3
27 -10 38 -15 10 -6 16 -7 13 -2 -3 5 10 7 29 5 19 -2 41 1 48 7 11 9 15 9 18
-1 3 -9 11 -8 32 6 27 17 44 16 32 -2 -6 -11 -125 -36 -133 -28 -3 3 -19 -2
-35 -10 -22 -11 -33 -13 -41 -5 -6 6 -20 11 -32 11 -11 0 -36 13 -55 29 -33
26 -92 61 -105 61 -3 0 -4 -3 -4 -7 5 -28 -3 -53 -16 -53 -8 0 -15 -8 -15 -19
0 -15 -7 -18 -37 -15 -21 1 -50 5 -65 9 -16 4 -28 3 -28 -2 0 -6 -20 -9 -45
-8 -25 0 -45 -3 -45 -7 0 -5 -9 -4 -19 2 -28 15 -35 12 -20 -7 12 -15 12 -16
-4 -10 -10 4 -37 10 -60 13 -31 4 -38 3 -27 -5 8 -6 11 -11 7 -11 -15 0 -152
31 -177 41 -14 5 -41 11 -60 14 -19 3 -55 9 -80 14 -25 5 -48 7 -52 5 -5 -3
-8 2 -8 11 0 13 -6 16 -24 11 -14 -3 -28 -2 -31 4 -3 5 -14 10 -24 10 -11 0
-37 8 -59 18 l-41 18 34 18 c25 14 61 20 136 22 55 2 106 8 113 13 6 5 17 11
25 13 8 2 26 15 40 29 31 30 58 43 86 40 11 -2 16 1 12 6 -5 4 13 18 40 29 47
21 82 23 132 8z m1835 -30 c3 -8 2 -12 -4 -9 -6 3 -10 10 -10 16 0 14 7 11 14
-7z m-1624 -4 c13 -8 13 -10 -2 -10 -9 0 -20 5 -23 10 -8 13 5 13 25 0z
m-2585 -79 c-2 -17 7 -50 22 -81 27 -57 26 -81 -1 -28 -10 18 -23 43 -30 55
-13 24 -10 83 5 83 4 0 6 -13 4 -29z m4205 9 c0 -5 -5 -10 -11 -10 -5 0 -7 5
-4 10 3 6 8 10 11 10 2 0 4 -4 4 -10z m-886 -35 c-7 -17 11 -21 21 -5 12 19
40 9 70 -25 16 -19 36 -35 43 -35 8 0 12 -6 9 -14 -3 -8 -3 -17 1 -21 4 -4 7
-10 7 -14 0 -4 8 -15 18 -25 27 -28 21 -34 -43 -41 -48 -6 -66 -13 -90 -37
-17 -16 -30 -34 -30 -39 0 -5 -6 -9 -14 -9 -10 0 -12 9 -6 43 8 43 -1 67 -25
67 -15 0 -86 -67 -109 -104 -14 -22 -20 -25 -27 -15 -5 9 -2 21 10 34 19 22
26 71 11 80 -32 20 17 83 111 146 51 34 50 33 43 14z m-3307 -217 c-3 -8 -6
-5 -6 6 -1 11 2 17 5 13 3 -3 4 -12 1 -19z m57 -50 c3 -16 3 -34 0 -39 -9 -15
-23 -10 -22 9 0 9 -3 29 -7 45 -6 22 -4 26 8 21 8 -3 17 -19 21 -36z m3066
-32 c0 -3 -4 -8 -10 -11 -5 -3 -10 -1 -10 4 0 6 5 11 10 11 6 0 10 -2 10 -4z
m-3070 -60 c0 -12 5 -27 11 -33 9 -9 6 -19 -10 -39 l-21 -27 -2 29 c0 16 0 36
1 44 1 8 3 25 4 37 3 27 17 19 17 -11z m137 -88 c-3 -8 -6 -5 -6 6 -1 11 2 17
5 13 3 -3 4 -12 1 -19z m-111 -52 c2 -20 10 -50 17 -66 14 -28 14 -28 -22 -34
-113 -18 -204 -208 -204 -426 0 -102 27 -191 104 -348 41 -82 68 -120 131
-187 131 -139 193 -169 296 -142 60 16 67 12 17 -9 -43 -18 -116 -18 -158 0
-52 21 -144 103 -207 181 -62 78 -109 169 -161 312 -31 82 -33 97 -34 218 0
107 4 142 22 200 31 97 73 160 133 197 45 28 50 34 47 62 -2 18 -7 37 -11 44
-10 17 1 45 15 40 6 -2 13 -21 15 -42z m121 12 c-3 -8 -6 -5 -6 6 -1 11 2 17
5 13 3 -3 4 -12 1 -19z m1658 -128 c-3 -5 -17 -10 -31 -10 -13 0 -24 5 -24 10
0 6 14 10 31 10 17 0 28 -4 24 -10z m-1567 -61 c40 -23 82 -54 93 -67 18 -23
18 -27 4 -41 -13 -13 -19 -13 -60 7 -49 24 -115 79 -147 125 l-22 30 30 -6
c16 -3 62 -25 102 -48z m1703 -41 c40 -19 68 -52 55 -65 -2 -2 -58 -6 -125 -9
-90 -4 -126 -2 -137 7 -12 10 -17 10 -23 1 -8 -13 -35 -8 -58 10 -9 7 -4 16
18 35 66 56 175 64 270 21z m1720 -64 c11 -14 9 -19 -11 -35 -14 -10 -38 -18
-55 -18 -16 -1 -51 -3 -77 -7 -27 -3 -48 -2 -48 2 1 27 35 50 88 60 80 16 88
16 103 -2z m-1586 -138 c80 -47 125 -215 75 -279 l-20 -25 33 8 c17 4 52 13
76 19 38 11 45 11 53 -3 13 -23 28 -10 28 25 0 30 6 34 28 21 18 -12 2 -49
-47 -106 -23 -26 -41 -56 -41 -67 0 -10 -4 -19 -9 -19 -5 0 -9 -20 -9 -45 0
-45 -20 -105 -34 -105 -4 0 -35 -21 -68 -46 -38 -29 -67 -44 -77 -40 -8 4 -21
2 -27 -2 -6 -5 -23 -12 -38 -16 -16 -3 -28 -12 -28 -19 0 -11 -192 -64 -213
-59 -4 1 -27 5 -50 7 -58 7 -111 25 -120 41 -4 8 -16 14 -26 14 -10 0 -24 7
-31 15 -7 8 -16 15 -20 15 -14 0 -70 54 -70 67 0 6 -16 24 -36 39 -23 18 -34
33 -31 45 3 10 -5 26 -19 38 -15 13 -24 32 -24 50 0 17 -5 33 -11 37 -8 4 -7
9 2 15 10 6 11 9 2 9 -19 0 -16 13 6 27 15 10 27 6 69 -23 103 -69 221 -110
390 -134 70 -10 92 -10 157 5 98 21 217 82 278 141 50 49 58 60 30 46 -10 -5
-23 -7 -29 -5 -6 2 -67 -8 -136 -22 -249 -50 -451 -22 -544 76 l-29 31 60 -35
c74 -44 173 -71 238 -64 113 10 192 158 164 305 l-9 42 33 0 c18 0 51 -11 74
-24z m-214 -4 c14 -12 20 -25 16 -35 -9 -23 -40 -21 -68 3 -24 20 -24 20 -5
35 25 19 29 19 57 -3z m2004 8 c-3 -5 -10 -10 -16 -10 -5 0 -9 5 -9 10 0 6 7
10 16 10 8 0 12 -4 9 -10z m-210 -49 c22 -16 50 -49 62 -72 l22 -44 1 35 c0
25 3 31 11 23 6 -6 11 -37 10 -68 -1 -104 -68 -179 -188 -210 -67 -18 -211
-20 -283 -4 -28 6 -54 9 -56 6 -3 -3 20 -11 52 -18 69 -15 57 -24 -15 -11 -30
5 -51 6 -51 0 0 -5 -15 -1 -32 8 l-33 17 19 -22 c38 -42 153 -111 234 -140 89
-32 142 -39 208 -27 l41 7 -5 -32 c-3 -20 -1 -30 6 -25 5 3 12 -1 16 -9 3 -8
0 -14 -7 -12 -7 1 -12 -5 -12 -13 -1 -22 -36 -59 -50 -54 -7 3 -15 -2 -19 -11
-3 -10 -12 -15 -21 -11 -8 3 -15 2 -15 -3 0 -5 -12 -8 -26 -8 -17 0 -24 4 -20
13 3 8 1 14 -4 14 -6 0 -10 -7 -10 -16 0 -10 -6 -14 -17 -10 -10 2 -37 10 -60
17 -31 9 -43 17 -43 31 0 16 -6 19 -37 16 -42 -5 -63 9 -63 41 0 12 -4 21 -9
21 -8 0 -23 46 -25 77 -1 6 -29 41 -64 77 -55 57 -112 150 -99 162 2 2 55 -11
116 -31 182 -57 270 -45 332 43 53 74 63 177 25 250 -12 23 -13 31 -3 35 20 7
70 -12 112 -42z m218 2 c-7 -2 -19 -2 -25 0 -7 3 -2 5 12 5 14 0 19 -2 13 -5z
m33 -19 c-30 -21 -42 -17 -15 5 13 11 26 17 29 14 3 -2 -4 -11 -14 -19z m-462
-6 c19 -27 14 -35 -24 -40 -23 -4 -35 0 -46 16 -18 27 -18 34 4 39 36 10 51 6
66 -15z m-672 0 c9 -7 20 -29 24 -48 6 -34 8 -52 15 -170 2 -30 8 -58 13 -61
5 -4 5 -13 0 -20 -5 -8 -9 -29 -9 -48 0 -19 -6 -36 -12 -38 -7 -3 -13 0 -13 7
0 6 4 8 10 5 5 -3 7 0 4 9 -5 12 -9 11 -27 -7 -20 -20 -22 -20 -25 -4 -2 9
-10 17 -18 17 -8 0 -12 5 -9 11 4 6 -1 20 -12 32 -18 20 -19 33 -12 157 3 74
10 143 14 153 8 20 34 22 57 5z m-1479 -53 c21 -20 10 -55 -17 -55 -21 0 -56
31 -56 49 0 22 53 27 73 6z m2534 -170 c-6 -63 -43 -140 -74 -154 -20 -9 -23
-8 -23 8 0 11 -3 26 -6 35 -4 11 3 19 22 27 l29 11 -22 18 c-23 18 -21 33 2
24 9 -4 11 2 8 20 -3 15 -1 26 6 26 6 0 10 10 8 23 -1 13 3 21 11 20 6 -2 12
5 12 15 1 15 2 15 16 -3 11 -14 14 -34 11 -70z m-1602 56 c3 -5 1 -12 -5 -16
-5 -3 -10 1 -10 9 0 18 6 21 15 7z m-1863 -31 c-4 -29 -18 -47 -28 -37 -5 5
23 67 30 67 1 0 1 -14 -2 -30z m2752 15 c3 -8 1 -15 -4 -15 -6 0 -10 7 -10 15
0 8 2 15 4 15 2 0 6 -7 10 -15z m-726 -33 c14 12 14 11 1 -9 -7 -12 -15 -20
-17 -18 -2 2 -17 -11 -34 -28 -35 -36 -34 -29 2 25 14 21 27 33 28 27 3 -6 10
-5 20 3z m-671 -78 c-3 -3 -12 -4 -19 -1 -8 3 -5 6 6 6 11 1 17 -2 13 -5z
m258 -16 c-37 -11 -168 -11 -215 1 -25 6 6 8 105 8 100 0 131 -2 110 -9z
m-1895 -29 c12 -16 19 -33 15 -37 -7 -8 -55 43 -55 59 0 18 19 8 40 -22z
m3403 -16 c-13 -2 -35 -2 -50 0 -16 2 -5 4 22 4 28 0 40 -2 28 -4z m-3232 -53
c23 -13 26 -45 3 -36 -9 3 -20 6 -25 6 -5 0 -9 9 -9 20 0 23 4 24 31 10z
m2179 -41 c0 -5 -6 -9 -14 -9 -7 0 -43 -15 -80 -33 -57 -29 -64 -31 -53 -13
19 28 57 55 86 61 13 2 26 6 28 9 7 7 33 -5 33 -15z m492 -59 c39 -38 75 -70
79 -70 10 0 5 -41 -10 -67 -15 -29 -61 -53 -101 -53 -47 0 -167 30 -179 44
-15 18 -26 106 -14 106 6 0 22 20 38 43 26 42 58 64 98 66 10 1 50 -30 89 -69z
m316 -156 c8 -15 9 -24 2 -24 -5 0 -10 5 -10 11 0 8 -23 9 -74 5 -41 -3 -77
-2 -80 3 -3 4 -1 23 4 42 9 30 3 72 -17 127 -9 24 159 -134 175 -164z m-703
146 c3 -5 14 -10 23 -10 24 0 112 -90 112 -115 0 -36 -38 -48 -121 -40 -92 8
-131 29 -140 74 -6 27 -3 37 18 54 21 19 73 44 95 46 4 1 10 -3 13 -9z m-2301
-65 c3 -8 1 -15 -4 -15 -6 0 -10 7 -10 15 0 8 2 15 4 15 2 0 6 -7 10 -15z
m3121 -45 c3 -5 2 -10 -4 -10 -5 0 -13 5 -16 10 -3 6 -2 10 4 10 5 0 13 -4 16
-10z m-2855 -78 c12 -26 29 -56 39 -67 16 -17 42 -79 46 -110 1 -5 3 -12 5
-15 3 -5 9 -43 12 -69 1 -8 13 -25 27 -38 14 -12 20 -23 14 -23 -18 0 6 -50
24 -50 10 0 12 -6 8 -19 -8 -25 14 -61 37 -61 9 0 19 -4 22 -9 4 -5 -2 -7 -13
-4 -15 4 -18 0 -14 -21 3 -15 10 -29 16 -33 6 -4 7 -1 2 7 -5 8 -4 11 2 7 6
-4 13 -15 16 -26 3 -15 1 -18 -12 -14 -14 4 -14 3 2 -10 9 -8 17 -19 17 -24 0
-5 11 -23 25 -39 14 -16 25 -32 25 -35 0 -3 10 -10 22 -16 14 -6 18 -12 10
-17 -6 -4 -39 20 -78 56 -67 63 -107 86 -156 87 -14 1 -55 10 -90 21 -73 24
-200 41 -241 33 -51 -10 -100 -129 -77 -188 9 -25 7 -32 -17 -57 -18 -19 -33
-26 -46 -22 -11 3 -23 1 -27 -6 -6 -10 -12 -7 -26 8 -10 12 -22 18 -27 15 -5
-3 -7 3 -4 13 3 11 9 34 12 53 4 18 21 62 37 98 17 35 29 65 27 67 -2 2 -31
-2 -64 -9 -33 -7 -65 -9 -70 -4 -6 4 -30 11 -53 15 -35 5 -45 3 -56 -12 -13
-17 -17 -17 -41 -4 -22 12 -28 12 -35 0 -5 -8 -26 -14 -48 -15 -41 -1 -112
-36 -112 -56 0 -24 150 -164 240 -225 115 -77 182 -123 189 -130 8 -8 -31 8
-54 22 -11 6 -31 15 -45 19 -47 14 -243 160 -299 222 -55 62 -73 75 -70 51 3
-29 -2 -40 -16 -35 -17 7 -31 -49 -21 -87 3 -14 2 -27 -3 -31 -5 -3 -9 -29 -9
-58 2 -82 -20 -119 -99 -170 -37 -25 -78 -55 -90 -68 -48 -53 -64 -133 -42
-211 12 -45 23 -47 52 -11 50 61 96 103 112 103 13 0 5 -14 -30 -51 -26 -28
-45 -52 -43 -54 2 -3 21 0 42 6 27 8 62 7 119 0 44 -6 84 -11 89 -11 5 0 7 -4
4 -9 -3 -5 -25 -7 -49 -3 -36 4 -40 3 -30 -9 10 -12 6 -18 -17 -34 -16 -11
-31 -27 -33 -36 -4 -16 -19 -25 -161 -99 -36 -19 -66 -40 -66 -47 0 -7 -17
-15 -37 -18 -62 -10 -70 -14 -53 -25 21 -13 -29 -30 -87 -30 -39 0 -44 -2 -33
-15 10 -12 7 -15 -17 -21 -78 -17 -103 -26 -103 -33 0 -5 17 -5 38 0 36 8 82
3 82 -9 0 -4 -15 -29 -33 -57 -19 -27 -53 -81 -77 -118 -23 -37 -45 -65 -48
-63 -3 3 0 11 5 18 6 7 13 27 17 43 5 24 1 21 -19 -17 -14 -26 -31 -51 -39
-55 -17 -10 -107 -171 -111 -198 -2 -20 -13 -49 -73 -195 -33 -81 -56 -206
-67 -362 -12 -156 -28 -120 -23 49 2 80 1 138 -4 127 -4 -10 -41 -95 -81 -189
-41 -93 -77 -179 -80 -190 -3 -11 -17 -60 -31 -110 -14 -49 -26 -100 -26 -113
0 -12 -9 -40 -20 -62 -25 -49 -25 -62 0 -31 45 54 13 -47 -39 -122 -114 -167
-249 -477 -296 -681 -26 -111 -11 -109 108 15 56 58 111 112 122 120 19 14 19
14 0 -12 -11 -15 -48 -58 -82 -97 -78 -89 -156 -205 -195 -288 -44 -95 -48
-215 -13 -384 l6 -25 -11 24 c-19 44 -42 205 -42 296 0 78 6 113 50 265 65
224 222 697 302 910 34 91 89 239 122 330 33 91 93 251 134 355 41 105 98 249
126 320 61 158 135 307 197 399 25 38 55 86 66 106 26 47 184 193 277 257 57
39 68 51 63 68 -4 11 -9 61 -12 112 -5 87 -4 96 24 155 17 35 51 90 75 123 56
74 70 106 103 242 33 134 53 181 93 215 51 43 114 52 402 56 429 7 447 6 550
-17 116 -26 119 -26 113 -1 -3 11 -10 20 -15 20 -5 0 -7 4 -4 8 2 4 -4 27 -15
51 -10 24 -17 47 -14 51 3 5 0 10 -6 12 -7 2 -13 13 -14 24 -1 10 -5 28 -9 39
-4 11 -13 36 -20 55 -39 106 -83 256 -79 267 8 20 20 7 43 -45z m1733 -180
c10 -18 39 -46 65 -63 25 -16 41 -29 34 -29 -7 0 -12 -7 -12 -16 0 -9 -5 -12
-11 -8 -7 4 -20 -4 -30 -17 -15 -20 -19 -21 -19 -7 0 18 -31 21 -46 5 -13 -13
-26 -7 -20 8 4 11 -2 15 -25 15 -17 0 -32 6 -35 15 -4 10 -14 13 -30 9 -15 -4
-24 -2 -24 5 0 6 -7 11 -15 11 -7 0 -18 6 -22 13 -4 8 -17 19 -28 25 -11 6
-14 12 -7 12 6 0 12 11 12 25 0 33 43 93 135 188 l50 52 5 -105 c4 -73 11
-115 23 -138z m1007 88 c0 -16 -42 -70 -55 -70 -4 0 48 89 53 90 1 0 2 -9 2
-20z m-521 -349 c51 -10 131 -5 141 8 7 8 102 8 115 -1 6 -3 40 -10 75 -14 36
-3 80 -12 98 -20 37 -15 45 -40 10 -30 -110 30 -203 30 -324 0 -56 -14 -67
-14 -120 1 -37 10 -117 19 -216 22 -87 3 -158 10 -158 14 0 5 3 9 8 9 4 0 34
5 67 10 33 5 82 12 109 14 27 3 50 7 52 9 2 2 23 0 47 -4 23 -5 66 -13 96 -18z
m-661 -236 c68 -54 104 -95 84 -95 -21 0 -108 65 -172 130 -78 78 -94 111 -27
58 23 -19 75 -60 115 -93z m354 42 c14 -18 18 -19 33 -7 22 19 46 19 124 3
115 -23 111 -21 111 -51 l0 -27 13 25 c12 23 18 25 92 26 87 0 95 -4 87 -57
-5 -34 -17 -39 -109 -46 -61 -5 -74 -3 -79 10 -5 14 -9 14 -27 3 -17 -11 -38
-12 -92 -5 -103 14 -111 16 -123 43 -11 25 -12 25 -58 11 -45 -13 -47 -13 -80
13 -23 18 -34 35 -34 53 0 37 8 41 70 33 39 -4 60 -12 72 -27z m804 -42 c-23
-54 -75 -125 -133 -182 -58 -57 -97 -74 -46 -20 16 17 50 61 73 96 40 59 107
141 116 141 2 0 -2 -16 -10 -35z m-2356 -31 c0 -8 -4 -12 -10 -9 -5 3 -10 10
-10 16 0 5 5 9 10 9 6 0 10 -7 10 -16z m1550 -43 c125 -44 306 -52 476 -21 60
11 123 20 141 20 l31 0 -15 -30 c-8 -17 -26 -38 -39 -48 -14 -9 -38 -27 -54
-40 -48 -38 -130 -60 -289 -78 -90 -10 -252 67 -391 186 l-35 29 60 1 c35 0
84 -8 115 -19z m-1449 -55 c27 -32 25 -127 -5 -191 -25 -55 -50 -75 -42 -32
18 88 18 97 -6 97 -77 -1 -278 -21 -301 -29 -15 -6 -27 -7 -27 -2 0 13 76 29
175 36 50 3 109 11 133 17 41 10 42 11 42 54 0 23 -5 55 -10 70 -10 25 -9 26
7 13 10 -8 25 -23 34 -33z m59 -36 c0 -5 -5 -10 -11 -10 -5 0 -7 5 -4 10 3 6
8 10 11 10 2 0 4 -4 4 -10z m2222 -353 c9 -19 19 -64 23 -100 5 -42 12 -67 19
-67 7 0 53 -20 102 -44 96 -47 136 -82 181 -161 l29 -50 60 -3 c32 -2 219 4
414 12 195 9 596 25 890 36 294 11 709 27 923 35 411 16 430 15 466 -29 12
-15 12 -19 0 -31 -21 -21 -153 -43 -328 -55 -142 -9 -232 -17 -596 -51 -66 -6
-136 -15 -155 -20 -19 -4 -64 -9 -100 -10 -36 -2 -73 -7 -84 -12 -10 -5 -60
-11 -110 -14 -50 -3 -93 -8 -96 -12 -3 -3 -23 -6 -45 -6 -76 -1 -179 -15 -186
-26 -5 -8 -8 -8 -13 0 -5 8 -12 7 -22 -4 -10 -9 -25 -12 -44 -8 -19 3 -30 1
-30 -6 0 -6 -9 -11 -20 -11 -11 0 -20 4 -20 9 0 5 -9 7 -20 4 -11 -3 -20 -9
-20 -13 0 -12 -54 -33 -80 -31 -21 2 -22 0 -10 -9 13 -10 13 -11 -2 -7 -21 7
-89 -13 -82 -25 3 -4 14 -8 25 -8 22 0 24 -6 6 -24 -15 -15 -47 -17 -64 -3 -9
6 -13 6 -13 -1 0 -6 9 -14 20 -17 11 -3 21 -9 21 -13 1 -4 3 -17 4 -30 1 -12
9 -30 17 -40 9 -9 18 -30 21 -47 4 -16 4 -25 1 -18 -3 7 -11 10 -18 7 -14 -5
-10 -50 6 -60 5 -3 4 -12 -3 -20 -9 -12 -6 -14 21 -14 31 0 32 -1 28 -40 -2
-27 1 -41 10 -45 9 -3 11 1 7 15 -6 18 -4 19 27 8 33 -12 33 -12 8 -19 -16 -4
-19 -7 -7 -8 10 -1 17 -9 17 -22 0 -11 5 -17 10 -14 6 4 10 -7 10 -24 0 -20 5
-31 14 -31 11 0 14 -10 11 -36 -3 -32 0 -37 26 -46 27 -9 36 -32 30 -70 0 -5
3 -9 9 -9 5 -1 15 -3 20 -4 6 -1 13 -3 16 -4 4 0 1 -7 -5 -15 -9 -10 -8 -16 4
-26 10 -9 15 -9 15 -1 0 6 7 11 15 11 19 0 19 -14 0 -34 -14 -14 -12 -16 17
-24 26 -7 34 -5 40 7 4 10 7 4 7 -17 1 -25 6 -35 21 -39 15 -4 19 -11 15 -24
-4 -11 -2 -19 5 -19 6 0 9 4 5 9 -3 5 -1 12 5 16 5 3 11 0 11 -7 1 -7 3 -24 6
-38 2 -14 4 -32 4 -42 0 -11 8 -15 25 -13 15 1 24 -3 24 -11 0 -8 -5 -14 -12
-14 -6 0 -1 -8 10 -19 13 -11 22 -30 22 -47 0 -16 8 -37 18 -46 45 -45 57 -61
58 -86 1 -15 3 -30 3 -34 1 -4 10 -10 21 -13 21 -7 28 -35 9 -35 -5 0 -7 5 -4
10 3 6 1 10 -4 10 -18 0 -12 -19 9 -30 11 -6 18 -15 15 -20 -9 -14 29 -77 43
-72 7 2 12 -3 12 -12 0 -9 -4 -16 -9 -16 -5 0 -5 -14 1 -33 9 -30 14 -33 42
-30 26 3 27 2 11 -6 -11 -5 -16 -10 -11 -10 5 -1 3 -8 -4 -16 -8 -10 -9 -15
-2 -15 7 0 9 -7 5 -17 -4 -11 -3 -14 5 -9 7 4 12 1 12 -8 0 -12 10 -16 38 -16
20 0 32 -4 26 -8 -6 -4 -14 -21 -17 -39 -5 -28 -3 -33 21 -42 17 -6 21 -10 10
-10 -20 -1 -21 -3 -12 -25 3 -9 13 -16 21 -16 8 0 11 -4 8 -10 -3 -5 -1 -10 5
-10 6 0 10 -6 9 -12 -4 -32 3 -46 24 -52 18 -5 20 -8 7 -16 -14 -9 -7 -14 13
-11 5 1 6 -3 2 -8 -10 -17 6 -61 22 -61 13 0 13 -3 -1 -24 -15 -24 -15 -25 17
-32 17 -4 35 -7 40 -6 4 1 7 -1 7 -4 0 -11 -26 -31 -48 -38 -12 -4 -20 -12
-16 -17 3 -5 10 -6 16 -3 6 4 8 -1 3 -15 -4 -12 -2 -21 4 -21 6 0 11 6 11 14
0 8 4 18 10 21 6 4 7 -1 3 -11 -4 -12 -3 -15 5 -10 14 8 15 5 6 -18 -3 -9 -11
-13 -17 -9 -6 4 -7 1 -3 -6 5 -7 0 -21 -10 -32 -13 -15 -15 -22 -6 -31 17 -17
15 -31 -3 -25 -8 4 -17 2 -20 -3 -4 -6 -1 -10 5 -10 6 0 -1 -11 -16 -25 -15
-14 -33 -25 -40 -25 -8 0 -14 -5 -14 -11 0 -6 8 -8 19 -4 11 3 22 1 26 -5 4
-6 -4 -10 -19 -10 -14 0 -40 -9 -58 -19 -17 -11 -35 -18 -40 -15 -4 3 -8 -2
-8 -10 0 -20 14 -20 35 0 12 13 26 15 63 9 l47 -8 -35 -8 c-19 -5 -41 -6 -47
-4 -25 8 -43 -7 -43 -36 0 -19 -5 -29 -15 -29 -9 0 -12 6 -9 15 5 11 0 15 -17
14 -13 0 -18 -3 -11 -6 35 -14 -27 -38 -93 -35 -28 2 -29 1 -7 -8 13 -5 20
-15 17 -21 -4 -6 2 -13 14 -16 21 -5 30 -23 12 -23 -5 0 -17 -3 -27 -7 -14 -5
-16 -3 -11 13 7 18 6 18 -7 2 -8 -12 -27 -18 -52 -18 -39 -1 -39 -1 -14 -15
14 -8 20 -14 13 -15 -6 0 -19 -3 -29 -7 -12 -4 -15 -3 -10 5 4 7 4 12 -1 12
-10 -1 -43 -25 -43 -33 0 -3 8 -8 18 -10 9 -3 3 -5 -14 -6 -18 -1 -34 -7 -38
-16 -9 -23 -6 -30 10 -27 7 2 20 -3 27 -10 11 -10 12 -15 1 -25 -7 -7 -20 -13
-28 -13 -9 0 -16 -7 -16 -15 0 -8 5 -15 10 -15 6 0 10 5 10 10 0 6 9 10 20 10
14 0 20 -7 20 -22 0 -15 3 -19 8 -11 4 7 13 9 21 4 7 -5 11 -13 8 -18 -3 -5 0
-10 8 -10 8 0 12 4 9 9 -3 4 2 8 10 8 9 0 16 6 17 13 1 6 5 1 9 -13 5 -17 8
-19 9 -7 1 12 10 17 32 17 25 0 30 -3 25 -16 -6 -15 -4 -15 11 -3 15 12 16 12
10 -3 -5 -15 0 -18 31 -19 20 -1 -26 -8 -103 -15 -77 -8 -282 -30 -455 -49
-514 -56 -545 -59 -1150 -115 -118 -11 -253 -25 -300 -30 -132 -15 -150 -14
-150 12 0 21 -2 21 -102 15 -180 -12 -208 -17 -208 -40 0 -15 3 -17 13 -9 7 6
62 16 123 22 150 14 154 14 154 -10 0 -24 0 -24 172 -5 73 8 304 30 513 50
209 19 548 53 754 75 206 22 514 53 685 70 309 30 448 46 496 57 18 4 22 2 15
-5 -5 -6 -68 -18 -140 -26 -162 -20 -716 -76 -747 -76 -17 0 -19 -3 -9 -9 8
-6 -5 -7 -35 -5 -36 3 -44 2 -29 -5 17 -8 16 -10 -12 -10 -19 -1 -36 -8 -41
-17 -6 -11 -17 -15 -30 -12 -13 4 -23 0 -26 -8 -4 -9 -15 -13 -31 -10 -14 3
-25 0 -25 -5 0 -6 -9 -7 -22 -3 -39 13 -132 11 -148 -2 -9 -7 -29 -13 -45 -12
-54 1 -65 -2 -65 -17 0 -13 -4 -14 -20 -5 -23 12 -93 -6 -84 -22 3 -4 -1 -8
-8 -9 -7 0 -20 -2 -28 -4 -50 -13 -118 -21 -114 -13 3 4 0 8 -5 8 -6 0 -11 -4
-11 -10 0 -5 -11 -10 -25 -10 -14 0 -25 -4 -25 -10 0 -5 -10 -10 -22 -10 -19
0 -20 2 -8 11 12 8 10 10 -10 6 -14 -2 -34 -8 -44 -12 -14 -6 -17 -5 -11 4 6
10 -4 12 -44 10 -28 -2 -51 -1 -51 2 0 3 -7 6 -15 6 -8 0 -15 -4 -15 -8 0 -13
-61 12 -67 28 -4 11 -8 11 -21 1 -12 -10 -14 -10 -8 0 5 8 0 12 -16 13 -19 1
-18 3 7 9 l30 8 -32 1 c-18 0 -33 -3 -33 -8 0 -4 -24 -7 -52 -5 -40 3 -47 1
-28 -5 25 -9 25 -9 -5 -11 -62 -3 -95 -21 -95 -52 -1 -35 -29 -52 -91 -54 -33
-1 -63 -5 -67 -8 -10 -10 -33 -6 -27 4 3 5 1 10 -4 10 -6 0 -11 -6 -11 -13 0
-10 -18 -14 -62 -16 -34 -1 -74 -9 -89 -17 l-28 -14 6 67 c3 39 2 64 -3 60 -5
-5 -11 -34 -14 -65 l-5 -57 -75 -6 c-41 -4 -101 -10 -133 -14 l-59 -8 7 49 c4
27 8 51 9 54 0 3 -4 7 -9 10 -6 3 -11 -13 -13 -37 -3 -45 -6 -47 -72 -46 -13
0 -30 -7 -37 -16 -12 -15 -12 -14 -7 2 8 21 0 22 -20 1 -17 -16 -151 -30 -141
-14 3 4 -1 10 -8 13 -14 5 -52 73 -52 93 0 6 -7 19 -15 29 -12 14 -6 13 26 -5
l42 -24 148 18 c82 10 151 20 153 22 14 13 -21 12 -150 -5 -156 -21 -170 -19
-228 30 l-24 20 12 97 c7 53 19 126 26 162 7 36 16 94 20 130 3 36 10 88 16
115 5 28 16 100 24 160 19 139 45 296 90 550 19 110 47 268 60 350 14 83 32
184 40 225 8 41 19 107 24 145 5 39 16 108 25 155 50 278 98 644 60 460 l-13
-65 5 55 c7 80 15 105 26 88 5 -8 6 -3 2 15 -3 15 -2 33 4 40 5 6 13 65 17
129 6 105 10 122 36 163 38 59 106 102 173 109 28 3 161 10 296 16 269 12 373
20 365 28 -3 3 -25 5 -49 3 -40 -2 -47 2 -72 34 -16 21 -33 34 -41 31 -8 -4
-11 -1 -8 5 4 6 1 10 -6 8 -30 -4 -35 2 -32 34 4 25 -3 18 -31 -39 -41 -83
-78 -125 -46 -52 10 24 23 69 28 100 8 51 7 57 -10 61 -10 3 -18 12 -18 21 0
18 -34 56 -51 56 -6 0 -9 6 -6 13 2 6 9 11 15 10 6 -2 9 4 6 12 -4 9 -2 21 4
28 5 6 12 25 16 41 7 28 44 86 56 86 3 0 13 -15 22 -33z m-3422 -168 c0 -6 7
-9 14 -6 10 4 13 1 9 -9 -3 -9 2 -14 16 -14 12 0 21 -6 21 -14 0 -8 12 -17 27
-21 34 -8 55 -24 47 -36 -4 -8 0 -10 21 -9 3 0 11 -5 18 -11 16 -15 17 -48 1
-42 -7 2 -15 0 -19 -6 -5 -10 21 -16 48 -12 4 0 7 -3 7 -7 0 -15 -24 -32 -44
-32 -29 0 -13 -11 20 -13 23 -2 28 -7 26 -22 -5 -26 -23 -44 -29 -28 -8 23
-43 -9 -44 -42 -1 -17 -3 -22 -6 -12 -4 16 -22 21 -80 20 -13 0 -23 4 -23 8 0
5 -7 9 -16 9 -8 0 -13 -3 -11 -7 3 -5 -13 -9 -34 -10 -24 -2 -38 1 -34 7 3 6
19 10 36 10 16 0 29 5 29 10 0 6 7 10 15 10 8 0 15 5 15 10 0 6 -6 10 -14 10
-8 0 -22 3 -32 7 -12 4 -15 3 -10 -5 4 -7 1 -12 -8 -12 -59 0 20 46 84 49 19
1 41 8 48 15 11 11 7 13 -28 10 -22 -1 -53 -4 -68 -7 -15 -2 -21 -2 -14 0 6 3
12 11 12 18 0 8 8 18 17 24 16 9 16 11 -5 29 -20 17 -20 21 -6 33 14 11 13 14
-8 25 -13 7 -22 16 -21 21 7 23 -10 44 -30 38 -21 -6 -22 -6 -3 9 23 18 56 21
56 5z m3300 -20 c0 -5 -4 -9 -10 -9 -5 0 -10 7 -10 16 0 8 5 12 10 9 6 -3 10
-10 10 -16z m-3125 -327 c-3 -3 -11 0 -18 7 -9 10 -8 11 6 5 10 -3 15 -9 12
-12z m-141 -17 c-4 -8 -10 -15 -15 -15 -4 0 -6 7 -3 15 4 8 10 15 15 15 4 0 6
-7 3 -15z m53 -1 c-3 -3 -12 -4 -19 -1 -8 3 -5 6 6 6 11 1 17 -2 13 -5z m58
-40 c13 -5 14 -8 3 -15 -19 -13 -28 -11 -28 6 0 17 2 18 25 9z m2612 -216 c-3
-7 -5 -2 -5 12 0 14 2 19 5 13 2 -7 2 -19 0 -25z m1753 8 c0 -3 -4 -8 -10 -11
-5 -3 -10 -1 -10 4 0 6 5 11 10 11 6 0 10 -2 10 -4z m-4790 -38 c15 -21 17
-28 6 -19 -16 13 -41 51 -33 51 2 0 14 -15 27 -32z m108 -43 c-3 -3 -9 2 -12
12 -6 14 -5 15 5 6 7 -7 10 -15 7 -18z m2889 -227 c-3 -8 -6 -5 -6 6 -1 11 2
17 5 13 3 -3 4 -12 1 -19z m-271 -478 c14 -74 36 -191 50 -260 33 -165 51
-337 37 -351 -7 -7 -17 34 -32 128 -13 76 -43 242 -68 368 -45 235 -62 379
-48 412 5 12 12 -11 21 -72 8 -49 25 -151 40 -225z m2374 180 c0 -5 -4 -10
-10 -10 -5 0 -10 5 -10 10 0 6 5 10 10 10 6 0 10 -4 10 -10z m120 -172 c0 -4
-4 -8 -9 -8 -6 0 -12 4 -15 8 -3 5 1 9 9 9 8 0 15 -4 15 -9z m-2609 -282 c-8
-100 -8 -193 -2 -285 20 -275 21 -321 7 -321 -17 0 -24 70 -32 348 -6 188 -4
245 12 370 16 122 20 138 22 92 2 -30 -1 -122 -7 -204z m-490 27 c0 -109 -7
-295 -16 -413 -20 -292 -20 -350 3 -351 28 -2 -140 -28 -178 -27 -19 0 1 6 45
12 l80 11 7 70 c18 177 39 509 45 698 3 114 8 205 11 203 2 -3 4 -94 3 -203z
m3416 -328 c-9 -7 -14 -15 -10 -18 3 -4 0 -7 -9 -7 -8 0 -18 3 -21 7 -9 9 13
34 24 27 5 -3 9 0 9 6 0 6 5 8 12 4 8 -5 6 -11 -5 -19z m40 -131 c-3 -3 -12
-4 -19 -1 -8 3 -5 6 6 6 11 1 17 -2 13 -5z m-4464 -238 c18 -7 41 -24 52 -36
11 -13 16 -21 10 -18 -5 2 -28 12 -49 22 -53 24 -77 15 -128 -47 -51 -60 -74
-72 -50 -24 8 18 18 34 22 37 4 3 7 13 7 23 0 15 -7 18 -34 15 -18 -2 -33 -2
-33 -1 0 2 19 13 43 23 50 23 115 25 160 6z m-306 -21 c19 -8 50 -15 67 -16
l31 -1 -38 -10 c-29 -8 -46 -6 -79 7 -59 23 -167 31 -223 15 -34 -9 -63 -29
-106 -71 -32 -32 -59 -61 -59 -66 0 -4 -9 -14 -20 -20 -16 -11 -21 -10 -30 7
-6 11 -8 30 -5 43 8 32 90 83 172 106 86 25 237 28 290 6z m1715 -27 c31 -22
100 -99 94 -106 -3 -2 -15 -1 -27 3 -25 8 -139 112 -139 127 0 13 39 0 72 -24z
m-739 -2 c18 -8 41 -21 52 -30 15 -12 9 -11 -22 4 -96 46 -187 7 -275 -119
-10 -14 -21 -22 -24 -18 -11 11 11 52 53 98 27 30 32 40 18 35 -35 -14 -160
-44 -206 -50 -24 -4 -62 -9 -84 -12 -61 -10 -235 -11 -235 -2 0 16 39 26 128
33 52 4 178 22 280 40 213 37 269 41 315 21z m380 -13 c-7 -2 -19 -2 -25 0 -7
3 -2 5 12 5 14 0 19 -2 13 -5z m260 -49 c16 -19 26 -38 23 -41 -7 -8 -105 29
-118 44 -8 10 -4 15 13 22 40 16 53 12 82 -25z m-1813 -4 c-6 -11 -15 -20 -20
-20 -14 0 -12 27 3 33 23 10 28 7 17 -13z m1277 14 c-3 -3 -12 -4 -19 -1 -8 3
-5 6 6 6 11 1 17 -2 13 -5z m-1107 -24 c-29 -23 -84 -44 -75 -30 7 12 76 49
90 49 6 0 -1 -8 -15 -19z m-550 2 c-8 -4 -34 -20 -58 -36 -23 -16 -45 -26 -48
-23 -10 10 20 47 46 56 29 11 83 13 60 3z m2111 -28 c39 -20 38 -65 -1 -75
-53 -13 -70 -21 -63 -33 4 -6 -4 -4 -17 5 -21 14 -24 23 -22 60 2 24 9 47 15
51 19 12 56 9 88 -8z m-2241 -53 c0 -5 -7 -12 -16 -15 -14 -5 -15 -4 -4 9 14
17 20 19 20 6z m-360 -7 c0 -4 -13 -19 -29 -34 -20 -19 -32 -25 -39 -18 -7 7
-2 18 16 34 26 22 52 31 52 18z m243 -10 c-3 -8 -13 -14 -23 -14 -10 0 -21 -7
-24 -16 -4 -9 -9 -14 -12 -11 -3 3 1 16 10 29 17 26 59 37 49 12z m-180 -39
c-3 -9 -8 -14 -10 -11 -3 3 -2 9 2 15 9 16 15 13 8 -4z m2291 9 c10 -4 16 -18
16 -36 0 -28 -2 -29 -32 -23 -36 8 -48 20 -48 48 0 18 32 23 64 11z m-627
-116 c-3 -8 -6 -5 -6 6 -1 11 2 17 5 13 3 -3 4 -12 1 -19z m1103 -43 c8 -9 10
-15 3 -15 -6 0 -13 -13 -16 -29 -4 -20 -14 -31 -33 -35 -15 -4 -31 -3 -36 2
-15 15 -4 47 15 46 27 -3 20 15 -10 22 -23 6 -24 8 -10 19 13 9 14 14 4 24
-17 18 64 -16 83 -34z m-1113 -7 c-3 -8 -6 -5 -6 6 -1 11 2 17 5 13 3 -3 4
-12 1 -19z m523 -54 c26 -27 36 -42 23 -35 -12 6 -31 11 -43 11 -29 0 -72 30
-66 46 3 7 0 15 -7 18 -7 2 2 5 18 5 24 1 41 -9 75 -45z m201 -103 c54 -35 97
-80 96 -103 0 -9 -11 -22 -24 -29 -20 -11 -26 -11 -33 1 -12 20 -3 30 26 30
13 0 24 5 24 10 0 14 -53 12 -69 -2 -11 -10 -14 -10 -18 0 -3 6 -12 12 -20 12
-14 0 -13 3 3 21 15 16 16 21 4 19 -19 -3 -60 10 -60 19 0 4 6 13 13 20 10 11
8 13 -10 8 -24 -5 -32 8 -10 16 23 10 33 7 78 -22z m3887 -118 c-16 -2 -40 -2
-55 0 -16 2 -3 4 27 4 30 0 43 -2 28 -4z m-95 -10 c-7 -2 -21 -2 -30 0 -10 3
-4 5 12 5 17 0 24 -2 18 -5z m137 -32 c0 -15 -10 -20 -52 -25 -29 -4 -70 -10
-91 -13 -36 -5 -39 -4 -35 18 3 27 32 35 126 38 45 1 52 -2 52 -18z m265 9
c10 -16 -47 -37 -137 -50 l-86 -12 -7 -34 c-3 -20 -14 -43 -25 -54 -10 -10
-16 -21 -12 -24 3 -3 0 -6 -7 -6 -9 0 -11 8 -7 28 4 15 9 45 12 68 l6 40 92
10 c50 6 105 17 121 26 37 20 42 20 50 8z m-470 -50 c-11 -5 -36 -8 -55 -8
l-35 1 40 7 c57 10 74 10 50 0z m-3515 -30 c40 -43 55 -85 41 -116 -12 -28
-43 -44 -49 -26 -2 7 -12 12 -21 12 -32 0 -71 39 -71 70 0 37 22 53 66 48 32
-4 34 -3 18 9 -22 16 -56 17 -72 1 -9 -9 -12 -9 -12 0 0 13 33 30 58 31 8 1
26 -12 42 -29z m3388 13 c-10 -2 -26 -2 -35 0 -10 3 -2 5 17 5 19 0 27 -2 18
-5z m-85 -10 c-7 -2 -21 -2 -30 0 -10 3 -4 5 12 5 17 0 24 -2 18 -5z m-125
-10 c-10 -2 -26 -2 -35 0 -10 3 -2 5 17 5 19 0 27 -2 18 -5z m1077 -33 c121
-16 266 -34 322 -41 56 -7 107 -15 114 -19 26 -16 -5 -27 -93 -34 -51 -4 -181
-18 -288 -31 -107 -14 -346 -40 -530 -60 -184 -19 -387 -42 -450 -50 -63 -8
-329 -37 -590 -65 -261 -28 -639 -68 -840 -90 -201 -22 -432 -47 -515 -55 -82
-9 -231 -25 -330 -36 -506 -56 -919 -98 -927 -93 -12 8 -293 57 -788 140 -425
70 -872 152 -880 161 -8 9 123 -6 280 -32 166 -28 620 -96 790 -120 175 -24
525 -83 553 -94 17 -7 39 -5 71 4 26 8 163 26 304 40 308 31 620 64 1037 110
171 19 490 53 710 75 220 22 546 56 725 75 179 19 393 42 475 50 216 22 459
56 468 65 5 4 -14 14 -42 21 -83 21 -66 43 44 59 47 7 64 15 79 36 16 21 24
25 50 20 17 -4 130 -20 251 -36z m-5131 22 c3 -5 63 -12 133 -16 70 -4 146
-11 168 -15 l40 -8 -30 -7 c-16 -4 -37 -10 -45 -12 -8 -3 -64 -9 -125 -15
-168 -14 -275 -32 -245 -40 37 -10 52 -10 45 1 -3 6 -2 10 4 10 5 0 14 -6 18
-14 6 -10 52 -19 158 -30 343 -36 435 -46 530 -59 74 -11 141 -12 260 -6 88 4
161 6 163 4 2 -2 -18 -10 -44 -19 l-49 -15 42 0 c25 -1 48 -8 59 -18 16 -16
15 -18 -14 -31 -29 -14 -30 -16 -28 -86 l1 -71 -47 1 c-26 0 -50 3 -54 7 -3 3
-6 35 -6 71 l0 65 -57 6 c-31 3 -130 18 -221 32 -91 14 -201 31 -245 38 -101
16 -231 26 -190 15 17 -4 25 -8 19 -9 -6 -1 -9 -14 -6 -33 4 -26 2 -30 -12
-25 -10 4 -24 7 -32 7 -8 0 -14 9 -14 20 0 22 26 28 33 8 2 -7 7 -11 10 -8 15
14 -13 28 -68 34 -36 3 -55 3 -46 -3 9 -6 10 -10 2 -16 -7 -4 -18 -1 -26 5 -9
8 -28 10 -50 6 -19 -4 -35 -5 -35 -2 0 2 -3 13 -7 23 -5 15 -4 16 8 6 9 -7 38
-9 84 -5 l70 6 -135 17 c-233 31 -452 57 -525 64 -100 9 -377 55 -395 66 -9 5
16 9 67 9 46 0 149 7 230 15 306 32 596 44 607 27z m1093 -118 c-3 -3 -12 -4
-19 -1 -8 3 -5 6 6 6 11 1 17 -2 13 -5z m-40 -10 c-3 -3 -12 -4 -19 -1 -8 3
-5 6 6 6 11 1 17 -2 13 -5z m-72 -14 c-27 -12 -43 -12 -25 0 8 5 22 9 30 9 10
0 8 -3 -5 -9z m-938 -56 c-3 -3 -12 -4 -19 -1 -8 3 -5 6 6 6 11 1 17 -2 13 -5z
m2923 -4 c0 -5 -5 -10 -11 -10 -5 0 -7 5 -4 10 3 6 8 10 11 10 2 0 4 -4 4 -10z
m-2810 -36 c0 -2 -7 -4 -15 -4 -8 0 -15 4 -15 10 0 5 7 7 15 4 8 -4 15 -8 15
-10z m-2214 -271 c-9 -83 -16 -171 -16 -196 0 -25 -5 -49 -11 -53 -13 -7 -9
82 12 281 11 106 16 131 25 122 3 -2 -2 -72 -10 -154z m2584 137 c0 -7 -14 -8
-37 -4 -52 9 -54 14 -5 14 23 0 42 -5 42 -10z m-1391 -25 c47 -8 86 -17 89
-19 8 -8 -108 -26 -303 -46 -110 -12 -202 -23 -204 -26 -3 -2 -7 -31 -9 -64
-3 -47 -8 -60 -21 -60 -14 0 -14 2 -1 10 8 5 10 10 4 10 -7 0 -12 20 -12 51 0
27 -1 52 -3 54 -4 4 -231 44 -296 52 -42 6 -60 22 -25 24 9 0 109 6 222 13
290 18 460 18 559 1z m-1078 -151 c-5 -33 -13 -86 -16 -120 -4 -33 -10 -67
-15 -74 -5 -9 -7 1 -4 26 2 21 8 80 14 129 5 50 10 97 10 105 0 10 3 11 11 3
7 -7 7 -28 0 -69z m678 -146 c0 -10 -3 -18 -9 -18 -5 0 -9 21 -9 48 1 42 2 44
9 17 4 -16 8 -38 9 -47z"/>
<path d="M5945 8260 c-3 -5 -1 -10 4 -10 6 0 11 5 11 10 0 6 -2 10 -4 10 -3 0
-8 -4 -11 -10z"/>
<path d="M5830 8200 c-8 -5 -10 -10 -5 -10 6 0 17 5 25 10 8 5 11 10 5 10 -5
0 -17 -5 -25 -10z"/>
<path d="M6590 6357 l-23 -32 29 27 c15 15 26 30 23 33 -3 2 -16 -10 -29 -28z"/>
<path d="M6020 6305 c13 -14 26 -25 28 -25 3 0 -5 11 -18 25 -13 14 -26 25
-28 25 -3 0 5 -11 18 -25z"/>
<path d="M6413 4282 c0 -12 5 -22 9 -22 11 0 10 12 -2 30 -7 12 -9 10 -7 -8z"/>
<path d="M7147 3760 c3 -11 7 -20 9 -20 2 0 4 9 4 20 0 11 -4 20 -9 20 -5 0
-7 -9 -4 -20z"/>
<path d="M7433 2958 c-11 -13 -24 -30 -28 -38 -8 -16 -6 -14 34 33 14 15 22
27 19 27 -2 0 -14 -10 -25 -22z"/>
<path d="M7386 2885 c-9 -26 -7 -32 5 -12 6 10 9 21 6 23 -2 3 -7 -2 -11 -11z"/>
<path d="M7444 2858 c-28 -30 -28 -30 -4 -17 14 7 41 15 60 19 l35 6 -31 11
c-29 10 -34 9 -60 -19z"/>
<path d="M7956 2413 c-6 -14 -5 -15 5 -6 7 7 10 15 7 18 -3 3 -9 -2 -12 -12z"/>
<path d="M8075 2130 c3 -5 8 -10 11 -10 2 0 4 5 4 10 0 6 -5 10 -11 10 -5 0
-7 -4 -4 -10z"/>
<path d="M8092 2020 c0 -14 2 -19 5 -12 2 6 2 18 0 25 -3 6 -5 1 -5 -13z"/>
<path d="M8118 1959 c-10 -5 -18 -14 -18 -19 0 -17 15 -11 28 10 14 23 13 23
-10 9z"/>
<path d="M7610 1486 c0 -8 -6 -17 -12 -19 -8 -3 -6 -6 5 -6 11 -1 17 6 17 19
0 11 -2 20 -5 20 -3 0 -5 -6 -5 -14z"/>
<path d="M7708 1343 c7 -3 16 -2 19 1 4 3 -2 6 -13 5 -11 0 -14 -3 -6 -6z"/>
<path d="M6102 1080 c0 -14 2 -19 5 -12 2 6 2 18 0 25 -3 6 -5 1 -5 -13z"/>
<path d="M5425 1000 c-3 -5 -1 -10 4 -10 6 0 11 5 11 10 0 6 -2 10 -4 10 -3 0
-8 -4 -11 -10z"/>
<path d="M2705 4510 c3 -5 8 -10 11 -10 2 0 4 5 4 10 0 6 -5 10 -11 10 -5 0
-7 -4 -4 -10z"/>
<path d="M2808 4273 c-21 -2 -38 -9 -38 -14 0 -6 20 -8 51 -4 34 4 49 2 44 -5
-3 -5 -1 -10 4 -10 6 0 11 4 11 8 0 10 -22 33 -29 30 -4 -1 -23 -3 -43 -5z"/>
<path d="M4980 1719 c0 -5 5 -7 10 -4 6 3 10 8 10 11 0 2 -4 4 -10 4 -5 0 -10
-5 -10 -11z"/>
</g>
</svg>
