<svg id="changeColor" fill="#DC7633" xmlns="http://www.w3.org/2000/svg" xmlns:xlink="http://www.w3.org/1999/xlink" width="40" zoomAndPan="magnify" viewBox="0 0 375 374.9999" height="49" preserveAspectRatio="xMidYMid meet" version="1.0"><defs><path id="pathAttribute" d="M 17.882812 17.886719 L 356.882812 17.886719 L 356.882812 356.886719 L 17.882812 356.886719 Z M 17.882812 17.886719 " fill="#ffffff"></path></defs><path id="pathAttribute" d="M 326.1875 345.109375 L 48.582031 345.109375 C 38.152344 345.109375 29.660156 336.617188 29.660156 326.1875 L 29.660156 48.582031 C 29.660156 38.152344 38.152344 29.660156 48.582031 29.660156 L 326.1875 29.660156 C 336.617188 29.660156 345.109375 38.152344 345.109375 48.582031 L 345.109375 326.1875 C 345.109375 336.617188 336.617188 345.109375 326.1875 345.109375 Z M 48.582031 37.226562 C 42.316406 37.226562 37.226562 42.316406 37.226562 48.582031 L 37.226562 326.1875 C 37.226562 332.453125 42.316406 337.542969 48.582031 337.542969 L 326.1875 337.542969 C 332.453125 337.542969 337.542969 332.453125 337.542969 326.1875 L 337.542969 48.582031 C 337.542969 42.316406 332.453125 37.226562 326.1875 37.226562 Z M 48.582031 37.226562 " fill-opacity="1" fill-rule="nonzero" fill="#ffffff"></path><g><path id="pathAttribute" d="M 337.960938 356.886719 L 36.808594 356.886719 C 26.378906 356.886719 17.882812 348.390625 17.882812 337.960938 L 17.882812 36.808594 C 17.882812 26.378906 26.378906 17.886719 36.808594 17.886719 L 337.960938 17.886719 C 348.390625 17.886719 356.882812 26.378906 356.882812 36.808594 L 356.882812 337.960938 C 356.882812 348.390625 348.390625 356.886719 337.960938 356.886719 Z M 36.808594 25.453125 C 30.542969 25.453125 25.453125 30.542969 25.453125 36.808594 L 25.453125 337.960938 C 25.453125 344.226562 30.542969 349.316406 36.808594 349.316406 L 337.960938 349.316406 C 344.226562 349.316406 349.316406 344.226562 349.316406 337.960938 L 349.316406 36.808594 C 349.316406 30.542969 344.226562 25.453125 337.960938 25.453125 Z M 36.808594 25.453125 " fill-opacity="1" fill-rule="nonzero" fill="#ffffff"></path></g><g id="inner-icon" transform="translate(85, 75)"> <svg role="img" viewBox="0 0 24 24" xmlns="http://www.w3.org/2000/svg" id="IconChangeColor" height="199.8" width="199.8"><title>Indeed</title><path d="M11.566 21.5633v-8.762c.2553.0231.5009.0346.758.0346 1.2225 0 2.3739-.3206 3.3506-.8928v9.6182c0 .8219-.1957 1.4287-.5757 1.8338-.378.4033-.8808.6049-1.491.6049-.6007 0-1.0766-.2016-1.468-.6183-.3781-.4032-.5739-1.01-.5739-1.8184zM11.589.5659c2.5447-.8929 5.4424-.8449 7.6186.987.405.3687.8673.8334 1.0515 1.3806.2207.6913-.7695-.073-.9057-.167-.71-.4532-1.4182-.8334-2.2127-1.0946C12.8614.3873 8.8122 2.709 6.2945 6.315c-1.0516 1.5939-1.7367 3.2721-2.299 5.1174-.0614.2017-.1094.4647-.2207.6413-.1113.2036-.048-.5453-.048-.5702.0845-.7623.2438-1.4997.4414-2.237C5.3292 5.3375 7.897 2.0655 11.5891.5658zm4.9281 7.0587c0 1.6686-1.353 3.0224-3.0205 3.0224-1.6677 0-3.0186-1.3538-3.0186-3.0224 0-1.6687 1.351-3.0224 3.0186-3.0224 1.6676 0 3.0205 1.3518 3.0205 3.0224Z" id="mainIconPathAttribute" fill="#ffffff" stroke-width="0" stroke="#ff0000"></path></svg> </g></svg>